<svg width="0" height="0" class="hidden">
  <symbol fill="none" stroke='currentColor' xmlns="http://www.w3.org/2000/svg" viewBox="0 0 20 20" id="caret-bottom">
    <path vector-effect="non-scaling-stroke" d="M16.3,6.9L10,13.1L3.8,6.9" stroke-linecap="round" stroke-linejoin="round"></path>
  </symbol>
  <symbol fill="none" stroke='currentColor' xmlns="http://www.w3.org/2000/svg" viewBox="0 0 20 20" id="caret-left">
    <path vector-effect="non-scaling-stroke" d="M13.1,16.2L6.9,10l6.2-6.3" stroke-linecap="round" stroke-linejoin="round"></path>
  </symbol>
  <symbol fill="none" stroke='currentColor' xmlns="http://www.w3.org/2000/svg" viewBox="0 0 20 20" id="caret-top">
    <path vector-effect="non-scaling-stroke" d="M3.8,13.1L10,6.9l6.3,6.2" stroke-linecap="round" stroke-linejoin="round"></path>
  </symbol>
  <symbol fill="none" stroke='currentColor' xmlns="http://www.w3.org/2000/svg" viewBox="0 0 20 20" id="caret-right">
    <path vector-effect="non-scaling-stroke" d="M6.9,3.7l6.2,6.2l-6.2,6.2" stroke-linecap="round" stroke-linejoin="round"></path>
  </symbol>
  <symbol fill="none" stroke='currentColor' xmlns="http://www.w3.org/2000/svg" viewBox="0 0 20 20" id="magnifying-glass">
    <path vector-effect="non-scaling-stroke" d="M9.0625 15.625C12.6869 15.625 15.625 12.6869 15.625 9.0625C15.625 5.43813 12.6869 2.5 9.0625 2.5C5.43813 2.5 2.5 5.43813 2.5 9.0625C2.5 12.6869 5.43813 15.625 9.0625 15.625Z" stroke-linecap="round" stroke-linejoin="round"></path>
    <path vector-effect="non-scaling-stroke" d="M13.7031 13.7031L17.5 17.5" stroke-linecap="round" stroke-linejoin="round"></path>
  </symbol>
  <symbol fill="none" stroke="currentColor" xmlns="http://www.w3.org/2000/svg" viewBox="0 0 20 20" id="close">
    <path vector-effect="non-scaling-stroke" d="M15.625 4.375L4.375 15.625" stroke-linecap="round" stroke-linejoin="round"></path>
    <path vector-effect="non-scaling-stroke" d="M15.625 15.625L4.375 4.375" stroke-linecap="round" stroke-linejoin="round"></path>
  </symbol>
</svg>